<?xml version="1.0" standalone="no"?>
<!DOCTYPE svg PUBLIC "-//W3C//DTD SVG 20010904//EN"
 "http://www.w3.org/TR/2001/REC-SVG-20010904/DTD/svg10.dtd">
<svg version="1.0" xmlns="http://www.w3.org/2000/svg"
 width="512.000000pt" height="512.000000pt" viewBox="0 0 512.000000 512.000000"
 preserveAspectRatio="xMidYMid meet">

<g transform="translate(0.000000,512.000000) scale(0.100000,-0.100000)"
fill="#000000" stroke="none">
<path d="M300 4361 c-93 -29 -177 -101 -219 -190 l-26 -56 0 -1365 0 -1365 33
-67 c39 -80 101 -138 181 -170 l56 -23 2255 0 2255 0 60 24 c79 32 154 107
186 186 l24 60 0 1355 c0 1272 -1 1358 -18 1399 -36 91 -104 160 -195 197
l-57 24 -2255 -1 c-1240 0 -2266 -4 -2280 -8z m4500 -1611 l0 -1320 -2225 0
-2225 0 0 1320 0 1320 2225 0 2225 0 0 -1320z"/>
<path d="M1539 936 c-97 -66 -88 -221 15 -270 31 -14 131 -16 1021 -16 890 0
990 2 1021 16 103 49 112 204 15 270 l-36 24 -1000 0 -1000 0 -36 -24z"/>
</g>
</svg>
